<svg width="1214" height="1214" version="1.1" viewBox="0 0 1214 1214" xmlns="http://www.w3.org/2000/svg">
 <title>M365Wizard</title>
 <ellipse transform="matrix(.99996 -.008586 .0074605 .99997 0 0)" cx="590.39" cy="1087.6" rx="589.14" ry="51.195" fill="#06305f" opacity=".4" stroke-width="5.0616"/>
 <path d="m948.41 813.18c-58.14-5.8697-510.17 54.01-704.62 76.221-52.593 14.213-103.37 32.756-152.34 55.629-19.727 9.2133-37.153 19.264-52.279 30.15-9 6.48-17.979 13.87-23.869 22.6-4.28 6.35-7.9717 15.901-6.2617 23.701 1.93 8.79 5.51 14.819 12.5 21.059 12.26 10.94 28.96 18.5 44.25 24.16 11.08 4.0334 21.058 7.2299 29.932 9.5899 49.39 13.16 100.56 19.222 153.79 22.852 31.427 2.1534 63.84 3.2523 97.24 3.2989 44.767 0.067 87.85-1.0733 129.25-3.42 48.373-2.7333 97.29-6.9236 146.75-12.57 87.02-9.94 172.32-24.643 255.9-44.109 9.7733-2.28 19.536-4.5927 29.289-6.9394 56.01-13.45 111.31-29.65 164.22-49.9 30-11.48 58.95-24.86 87-42.09 13-7.98 24.096-16.546 33.289-25.699 13.34-13.29 22.18-33.551 5.1504-48.621-6.2467-5.5267-13.449-9.9701-21.609-13.33-21.45-8.82-43.771-13.96-68.051-18.59-12.14-2.5467-24.366-4.7133-36.68-6.5-36.22-5.2467-72.363-10.324-108.43-15.23z" fill="#06305f"/>
 <path d="m943.31 815.52c4.03 6.18-8.7925 12.256-12.792 13.296-7.2 1.88-11.79 3.02-13.77 3.42-23.707 4.82-43.193 8.83-58.46 12.03-9.29 1.95-18.95 2.87-25.8 4.44-6.1 1.39-6.87 6.52-10.28 10.78-6.1333 7.66-14.3 11.977-24.5 12.95-12.24 1.1733-24.653 2.6567-37.24 4.45-26 3.72-38.36 5.11-65.93 8.8-17.493 2.3333-32.67 4.2833-45.53 5.85-20.83 2.52-42.89 5.64-64.66 7.62-13.55 1.23-21.88-0.21-31.35-9.03-0.59729-0.55917-1.4103-0.83261-2.23-0.75-7.24 0.7-18.06 2.77-27.28 3.66-33.673 3.2533-63.587 5.9967-89.74 8.23-38.387 3.2667-77.06 5.2333-116.02 5.9-17.313 0.3-31.957-0.0333-43.93-1-7.75-0.63-25.98-0.78901-25.55-12.709 32.021-5.7315 338.27-83.042 695.06-77.937z" fill="#022247" fill-rule="evenodd"/>
 <path d="m962.83 815.44q54.1 7.36 108.43 15.23 18.47 2.68 36.68 6.5c-13.53 4.71-26.81 9.43-41.25 9.08q-10.62-0.26-23.62-2.14-26.86-3.86-65.35-11.78c-5.68-1.16-13.65-2.91-16.45-8.18q-2.23-4.2 1.56-8.71z" fill="#204678" fill-rule="evenodd"/>
 <path d="m376.69 89.502c-5.48 0.21696-10.968 0.68625-16.461 1.4375-43.9 6-85.64 23.57-121.92 48.4-15.807 10.813-31.235 23.543-46.281 38.189-20.6 20.06-38.619 42.038-54.059 65.932-2.5733 3.98-5.9869 10.313-10.24 19-3.95 8.07-7.6695 18.669-5.2695 27.309 1.24 4.4533 3.7493 8.0747 7.5293 10.861 13.49 8.21 27.1 2.5097 40.17-4.0703 12.373-6.2333 23.54-11.828 33.5-16.781 10.23-5.09 19.43-8.8893 29.85-12.779 9.5333-3.56 19.104-5.7061 28.711-6.4394 7.68-0.58667 16.347 0.69627 26 3.8496 5.74 1.88 11.5 6.1204 17.58 9.1504 0.43243 0.21347 0.77842 0.57396 0.97852 1.0195 6.3467 14.147 10.278 22.882 11.791 26.209 7.2 15.75 14.33 35.582 20.73 50.172 0.56 1.2667 1.879 3.4663 3.959 6.5996 0.17915 0.27108 0.19488 0.62021 0.041 0.91015-3.0133 5.7-4.9649 12.462-5.8516 20.289-0.97333 8.54-2.9086 25.483-5.8086 50.83-3.04 26.51-7.2613 56.04-10.361 76.67-4.1067 27.293-10.179 64.597-18.219 111.91-10.093 59.447-17.123 101.22-21.09 125.32-0.95333 5.7733-2.2825 15.52-3.8425 28.046 230.43 15.022 619.34-46.297 622.59-61.693-3.9733-12.387-7.3883-22.672-9.3417-28.225-22.753-64.567-47.5-127.5-74.24-188.79-7.38-16.933-15.748-35.097-25.102-54.49-14.133-30.413-29.685-60.077-46.658-88.99-10.78-18.38-22.851-36.48-34.271-52.43-11.4-15.92-23.96-32.45-37.85-47.74-7.9133-8.6933-13.22-14.453-15.92-17.279-22.9-23.913-47.754-45.544-74.561-64.891-20.053-14.567-40.989-27.626-62.809-39.18-11.287-5.9733-21.733-10.878-31.34-14.711-35.656-14.219-73.58-25.136-111.94-23.617z" fill="#06305f"/>
 <g fill-rule="evenodd">
  <path d="m582.78 167.01q40.21 29.02 74.56 64.89 4.05 4.24 15.92 17.28c13.89 15.29 26.45 31.82 37.85 47.74 11.42 15.95 23.49 34.05 34.27 52.43q25.46 43.37 46.66 88.99-2.39-0.09-3.75-2.11-8.03-11.91-19.55-28.28-4.94-7.02-12.04-16.13-8.61-11.07-12.19-16.16c-5.34-7.58-9.99-12.96-15.45-20.24q-2.78-3.71-6.38-7.95-23.66-27.89-38.38-45.49c-4.58-5.47-8.36-10.7-13.24-15.61q-3.04-3.06-7.36-7.95c-16.32-18.5-32.9-37.11-49.78-53.58q-14.28-13.95-37.91-33.9c-4.32-3.65-9.23-6.6-13.78-10.81q-2.2-2.03-6.87-4.93c-5.88-3.65-9.78-6.56-15.63-10.2-4.87-3.03-12.12-8.87-18.08-12.37-4.37-2.56-8.36-5.79-12.25-7.87q-3-1.6-9.63-5.54a0.3183 0.3172 48.168 0 1 0.03-0.56c8.14-3.75 20.79-0.52 30.61 1.32q5.43 1.02 10.24 3.33a9.3453 9.3504 79.976 0 1 2.46 1.72l4.78 4.66a6.3962 6.5053 77.923 0 0 2.25 1.43q0.32 0.12 9.12 3.4 5.72 2.13 8.87 5.34c4.47 4.55 8.11 8.35 14.65 7.15z" fill="#204678"/>
  <path d="m374.79 505.56c-0.78772 10.348-2.8933 25.22-3.48 30.94-0.87333 8.5-1.3267 12.85-1.36 13.05-6.51 43.57-11 86.17-9.53 128.53 0.54 15.61 3.26 32.27 14.86 43.9 4.9 4.9133 10.853 9.2267 17.86 12.94 6.92 3.6667 12.987 6.4167 18.2 8.25 14.127 4.9667 23.807 7.95 29.04 8.95 8.98 1.7133 17.787 3.1933 26.42 4.44 2.48 0.36 18.154 2.9917 20.4 4.145-61.857 11.993-143.84 17.378-209.34 13.845 1.56-12.527 3.1603-25.287 4.1136-31.06 3.9667-24.1 10.997-65.873 21.09-125.32 8.04-47.313 14.113-84.617 18.22-111.91 3.1-20.63 7.32-50.16 10.36-76.67 2.9-25.347 4.8367-42.29 5.81-50.83 0.88667-7.8267 2.8367-14.59 5.85-20.29 0.15411-0.28972 0.13877-0.63877-0.04-0.91-2.08-3.1333-3.4-5.3333-3.96-6.6-6.4-14.59-13.53-34.42-20.73-50.17-1.5133-3.3267-5.4433-12.063-11.79-26.21-0.20038-0.446-0.54694-0.8067-0.98-1.02-6.08-3.03-11.84-7.27-17.58-9.15-9.6533-3.1533-18.32-4.4367-26-3.85-9.6067 0.73333-19.177 2.88-28.71 6.44-10.42 3.89-19.62 7.69-29.85 12.78-9.96 4.9533-21.127 10.547-33.5 16.78-13.07 6.58-26.68 12.28-40.17 4.07 4.6267-0.53333 8.2267-1.5633 10.8-3.09 4.06-2.4 8.7667-5.8067 14.12-10.22 8.8467-7.2867 13.293-10.937 13.34-10.95 0.22-0.06 3.2533-2.5033 9.1-7.33 3.4-2.8 6.5067-5.1367 9.32-7.01 13.04-8.6933 21.937-14.5 26.69-17.42 14.6-8.9667 30.21-14.687 46.83-17.16 6.1933-0.92667 12.39-1.6167 18.59-2.07 0.65106-0.0447 1.2551-0.35575 1.67-0.86 4.94-5.94 6.88-11.56 11.58-21.45 1.64-3.4467 4.08-6.2333 7.32-8.36 0.99136-0.65435 2.3319-0.13245 2.62 1.02 2.19 8.71 3.79 14.49 7.54 22.97 6.45 14.57 11.38 25.26 19.66 36.8 10 13.95 18.35 23.94 31.66 33 9.42 6.42 21.62 5.24 31.76 1.52 4.76-1.7467 8.1667-2.82 10.22-3.22 0.34405-0.0701 0.69966 6e-3 0.98 0.21 0.76667 0.53333 1.1533 1.4433 1.16 2.73 0 0.30541-0.0945 0.59957-0.27 0.84-0.27333 0.36667-2.5767 3.43-6.91 9.19-9.7467 12.947-15.78 27.073-18.1 42.38-2.1267 14.06-3.1 29-2.92 44.82 0.28 24.287 0.0567 53.057-0.67 86.31-0.2 9.0467-0.47265 21.543-1.29 32.28z" fill="#022247"/>
  <path d="m496.86 290.92c-2.35-0.89-2.58-4.16-0.81-5.69q1.43-1.24 3.78-2.16c7.85-3.04 12.69-5.1 19.95-10.19a6.7782 7.0788 3.6562 0 0 1.36-1.25q4.61-5.56 6.53-12.22 2.65-9.17 4.62-20.61 0.18-1.05 1.86-2.37c2.15-1.7 5 0.15 5.62 2.11q4.93 15.78 10.96 26.25c2.54 4.42 9.05 7.12 14.16 9.07q3.53 1.35 14.45 4.17c2.18 0.57 3.14 1.24 3.77 3.27 0.57 1.83-1.59 4.03-3.08 4.53q-8.81 2.98-16.26 6.96c-12.9 6.86-14.3 23.62-17.26 36.44-1.2 5.2-6.88 4.46-8.25-0.01q-2.07-6.75-5.09-14.04c-3.52-8.52-6.68-15.03-14.35-17.93q-9.92-3.75-15.7-4.8-4.21-0.76-6.26-1.53z" fill="#ffd950"/>
 </g>
 <ellipse cx="451.82" cy="382.13" rx="9.9495" ry="10.591" fill="#00c8bd" stroke-width="4.8742"/>
 <g fill-rule="evenodd">
  <path d="m687.76 393.74c0.32-2.08 2.52-3.5 4.43-1.92q0.58 0.48 1.07 2.73 1.22 5.61 5.58 13.38 2.15 3.82 3.68 4.76a5.0864 2.6625 22.155 0 0 0.62 0.34q5.08 2.46 12.6 5.25c3.88 1.44 3.34 5.68-0.27 6.96q-5.46 1.94-9.54 4.45c-6.56 4.04-7.63 12.39-9.09 19.2-0.61 2.82-3.33 4.04-5.62 1.8a1.9562 1.8093 14.868 0 1-0.45-0.71q-3.99-11.45-6.16-14.68c-3.81-5.65-11.5-7.1-17.19-8.61-2.46-0.65-3.83-3.49-2.17-5.72 1.39-1.88 5.41-2.53 8.69-3.84q5.57-2.22 8.37-5.57c2.69-3.22 4.6-12.38 5.45-17.82z" fill="#00c8bd"/>
  <path d="m374.79 519.57q-5.9-1.2-11.73-2.64c-5.11-1.25-5.87-5.62-0.72-7.76q7.31-3.05 14.27-6.08c9.29-3.71 13.23-10.57 15.61-19.85q2.78-10.87 4.34-18.77c1.06-5.35 6.35-5.61 7.9-0.36q4.3 14.51 7.96 22.5 4.45 9.71 14.86 12.6 12.15 3.38 17.24 4.46 0.94 0.2 2.17 2.04a1.6079 1.6382 27.656 0 1 0.29 0.96q-0.06 2.99-2.34 3.81c-7.62 2.76-12.69 4.59-18.61 8.01-5.76 3.32-10.32 10.57-11.65 16.16q-3.43 14.39-4.68 19.8c-0.6 2.58-1.81 4.62-4.64 4.12q-2.85-0.51-3.68-2.96-3.15-9.29-6.35-18.38c-3.65-10.38-10.54-14.37-20.24-17.66z" fill="#fff"/>
  <path d="m551.24 544.21a2.7617 2.9693 75.649 0 1 3.25 1.77q1.64 4.58 3.37 9.69c3.49 10.3 5.44 17.67 15.04 20.9q8.35 2.81 16.59 5.03 2.01 0.54 2.69 1.38c1.39 1.71 0.03 4.82-1.94 5.43q-4.75 1.46-15.15 6.18c-5.38 2.44-9.62 8.88-10.94 14.06q-2.72 10.71-4.31 17.91c-0.27 1.24-1.69 3.37-3.26 3.33-2.12-0.07-3.19-1.32-3.93-3.38q-4.04-11.34-6.75-18.4c-1.89-4.95-4.84-8.11-10.24-10.22q-6.91-2.7-7.45-2.84-0.16-0.04-11.18-2.22-0.95-0.18-2.57-1.9a1.6575 1.6495 20.557 0 1-0.43-0.94q-0.32-3.19 2.16-4.09 9.66-3.47 16.11-6.34 4.12-1.84 7.7-6.12 2.09-2.5 3.83-8.97 3.77-14.02 4.6-17.75a1.5857 1.4801 69.592 0 1 0.2-0.48q1.11-1.77 2.61-2.03z" fill="#00aec9"/>
 </g>
 <ellipse cx="739.65" cy="577.24" rx="8.5622" ry="8.8274" fill="#ffd950" stroke-width="5.1"/>
 <ellipse cx="450.12" cy="660.74" rx="11.424" ry="11.749" fill="#00c8bd" stroke-width="5.1"/>
 <g>
  <path d="m922.57 706.26c-1.4267-0.0633-3.1412 0.0436-5.1445 0.32031-7.2221 1.0005-17.019 2.614-18.23 3.0898-31.86 5.2667-63.908 10.207-96.148 14.82-154.59 11.185-245.71 25.936-252.58 28.043l-76.578 6.2969c-53.067 4.1-92.358 6.8469-117.87 8.2402-25.647 1.4-51.29 2.8136-76.93 4.2402-0.51774-2.1e-4 -1.0572 0.0664-1.4394 0.0704-3.8333 0.16667-8.0062 0.36937-12.52 0.60937-6.4467 0.34667-10.485 0.91566-12.111 1.709-4.0333 1.9733-6.1434 5.4249-6.3301 10.352-0.54 14.68-1.3086 45.502-2.3086 92.469-0.0333 1.3467-0.17016 3.4897-0.41016 6.4297-0.18 2.16-0.24164 4.3112-0.18164 6.4512l4.4609 4.0606c1.6467 0.56 3.73 0.74836 6.25 0.56836 69.567-4.9867 113.98-8.3529 133.25-10.1 28.5-2.5867 56.994-5.2266 85.48-7.9199 28.44-2.68 84.108-8.3737 93.674-9.2109 107.82 9.4265 245.56-29.029 245.56-29.029 34.531-5.3635 68.782-10.9 102.75-16.609 8.88-1.49 18.659-3.5505 28.029-5.2305l5.1602-2.75 1.2402-5.0195c0.0394-0.16472 0.0426-0.33532 0.01-0.5-1.68-7.67-3.0602-13.011-4.4102-21.051-3.4267-20.373-6.9267-39.719-10.5-58.039-1.4-7.14-1.0698-17.979-8.7598-21.609-0.85-0.40334-1.9893-0.63784-3.416-0.70117z" fill="#cac1b9"/>
  <path d="m257.24 876.11c1.9333-1.5733 3.7367-2.05 5.41-1.43 2.8733 0.63333 5.2433 0.84667 7.11 0.64 8.5867-0.95333 16.743-1.6567 24.47-2.11 10.313-0.6 18.48-1.2133 24.5-1.84 12.767-1.32 22.193-2.1 28.28-2.34 9.14-0.36667 14.94-0.72333 17.4-1.07 3.5-0.48667 6.8533-0.77 10.06-0.85 1.3133-0.0267 4.6567-0.39667 10.03-1.11 3.04-0.40667 6.5367-0.65 10.49-0.73 5.94-0.12 9.4467-0.27333 10.52-0.46 7.7733-1.3533 15.147-2.1567 22.12-2.41 9.27-0.33 17.11-1.28 26.42-2.1 5.75-0.51 11.42-0.33 18.77-0.28 0.58778 7e-3 1.1752-0.10206 1.73-0.32 3.24-1.2667 6.0367-2.0133 8.39-2.24 7.84-0.76 15.623-1.6133 23.35-2.56 3.1333-0.38 10.927-1.14 23.38-2.28 7.5533-0.68667 21.332-2.3694 31.005-3.836 1.2641-0.18904 2.4228 0.73518 2.52 2.01l0.26 3.25c0.0582 0.73513-0.54957 1.3523-1.29 1.31-2.94-0.14666-10.189 0.49936-11.415 0.72603-4.5667 0.83333-9.3433 1.45-14.33 1.85-12.64 1.02-18.72 1.86-36.9 3.68-5.2267 0.52667-9.06 0.94-11.5 1.24-7.9 0.97-13.77 1.12-20.69 2.04-9.97 1.32-22.94 1.39-29.09 2.3-9.8067 1.4467-19.377 2.3867-28.71 2.82-4.4533 0.20667-7.9633 0.45667-10.53 0.75-5.02 0.57-9.02 1.18-14.01 1.51-10.967 0.72-20.607 1.4233-28.92 2.11-3.55 0.29-8.14 1.02-11.83 1.28-19.987 1.4067-34.123 2.3733-42.41 2.9-7.25 0.45-13.54 1.85-20.49 1.9-6.58 0.0467-13.01 0.41333-19.29 1.1-1.1133 0.12-2.14-0.0933-3.08-0.64-1.6733-0.96667-2.25-2.57-1.73-4.81z" fill="#dae4f2" fill-rule="evenodd"/>
  <path d="m555.96 754.76c0.85535-0.0991 1.4598 0.81629 1.03 1.56l-1.15 1.99c-0.68405 1.194-1.9394 1.9502-3.32 2-7.0467 0.25333-16.635 0.93906-20.435 1.3991-6.5667 0.79333-11.98 1.3067-16.24 1.54-5.08 0.27333-16.387 1.1467-33.92 2.62-7.25 0.61-12.92 0.74-19.9 1.51-7.34 0.8-16.12 0.75-23.53 1.54-5.6 0.60667-10.293 0.96-14.08 1.06-8.31 0.23-18.82 1.66-27.61 1.95-7.13 0.23-13.61 1-20.19 1.39-49.72 2.9467-81.51 4.8133-95.37 5.6-5.46 0.31-10.42-0.01-15.99 0.66-3.32 0.39333-7.6133 0.71333-12.88 0.96-0.63066 0.0278-1.0047-0.69623-0.62-1.2 1.38-1.7933 3.0467-2.8033 5-3.03 4.47-0.52 11.37-0.69 17.63-1.4 4.5467-0.52 8.29-0.77667 11.23-0.77 4.8133 0.0133 8.5667-0.12333 11.26-0.41 5.88-0.61333 14.107-1.18 24.68-1.7 4.6-0.23333 12.84-0.73333 24.72-1.5 12.233-0.78667 27.06-1.77 44.48-2.95 7.2467-0.48667 11.12-0.74 11.62-0.76 9.35-0.32 17.93-1.42 26.5-1.86 11.56-0.6 19.91-2 30.23-2.23 4.28-0.0933 9.3967-0.41667 15.35-0.97 8.2933-0.77333 19.69-1.7833 34.19-3.03 6.1533-0.53333 12.54-1.02 19.16-1.46 8.18-0.54 20.341-1.5957 28.155-2.5091z" fill="#dae4f2" fill-rule="evenodd"/>
  <path d="m917.62 724.5c-0.068 5.6e-4 -0.1363 5e-3 -0.20508 0.0117-7.2533 0.71333-13.703 1.5909-19.35 2.6308-5.1267 0.94-9.1802 1.652-12.16 2.1387-27.353 4.4733-54.776 8.7768-82.27 12.91l-244.59 27.42-9.0117 0.62109c-5.46 0.35-11.428 1.199-16.148 1.459-15.82 0.89-28.801 2.4499-44.541 3.4199-0.75333 0.0467-12.299 0.92419-34.639 2.6308-15.587 1.1933-27.14 2.0503-34.66 2.5703-18.46 1.2733-60.311 4.0152-125.55 8.2285-8.8 0.57-14.69 0.39024-22.57 1.2402-3.0133 0.32-6.5823 0.50411-10.709 0.55078a2.1311 2.1419 0.4187 0 0-2.1113 2.0898l-1.8692 83.689c1.9333-1.5733 3.7368-2.0497 5.4102-1.4297l1.6289-77.209a0.8611 0.8605 1.9528 0 1 0.90039-0.83984c2.9133 0.14 5.937 0.0896 9.0703-0.15039 10.973-0.82667 20.316-1.4635 28.029-1.9102 8.69-0.5 14.17-1.3806 22-1.6406 13.98-0.45334 27.251-1.2033 39.811-2.25 17.55-1.46 31.27-1.9699 50.41-3.6699 5.19-0.46 11.34-0.33 16-0.75 10.973-1.0067 24.83-2.1559 41.57-3.4492 3.28-0.25 7.2388 0.0285 10.219-0.27149 4.3533-0.43333 10.088-1.0496 17.201-1.8496 2.05-0.23 4.9498-0.01 7.3398-0.25976 14.36-1.5333 29.024-2.8256 43.99-3.8789l8.8496-0.96094c0.1895-0.31887 245.2-27.407 245.5-27.449 15.053-2.2533 31.083-4.6967 48.09-7.3301 21.04-3.26 34.993-5.334 41.859-6.2207 6.45-0.84 12.501-2.5401 19.111-3.5801 0.49995-0.0761 0.96086 0.27935 1.0098 0.77929 0.81 8.26 3.6195 16.601 4.7695 25.721 0.34 2.6933 0.88729 5.8507 1.6406 9.4707 1.9667 9.4933 3.4337 17.979 4.4004 25.459 0.44 3.3867 1.2764 6.1696 2.5098 8.3496l3.4688-0.6289c0.96667-0.0933 1.3833-0.48326 1.25-1.1699-2.6467-13.573-5.2753-27.493-7.8887-41.76-2.05-11.16-2.9603-21.021-5.5703-31.051-0.26465-1.0046-1.1758-1.6902-2.1953-1.6816z" fill="#6c6b6a"/>
  <path d="m802.69 733.34-0.41-6.27q1.14-0.96 3.99-0.27a1.3796 1.4679 48.936 0 0 0.53 0.02c11.2-1.7 16.57-2.21 26.72-4.13q3.38-0.64 12.25-1.81 11.21-1.48 24.57-3.79 5.74-1 12.49-1.63 5.86-0.56 11.78-2.3a5.8554 5.7177 35.062 0 1 1.35-0.22q10.11-0.45 21.78-3.45c3.1-0.79 6.37-0.76 8.96 1.03 2.73 1.9 2.52 5.07 2.66 8.32a0.3125 0.3098 30.486 0 1-0.59 0.15c-1.87-3.7-4.7-4.73-9.03-4.32q-14.6 1.41-15.68 1.66-9.81 2.27-11.82 2.41-8.24 0.59-13.75 1.82-7.15 1.61-11.48 2.08-3.34 0.36-22.67 3.53c-11.49 1.88-25.32 3.43-37.51 5.67q-2.06 0.38-4.14 1.5z" fill="#dae4f2" fill-rule="evenodd"/>
  <path d="m932.03 800.16c1.0133-0.0333 1.5867 0.34667 1.72 1.14 0.7 4.06-2.12 5.44-5.88 5.89-5.3933 0.63333-18.47 2.82-39.23 6.56-9.46 1.7067-32.783 5.45-69.97 11.23-1.95 0.3-5.74 0.95-7.23 1.05-1.1157 0.0744-1.7245-2.018-2.1532-5.4638 3.5733 0.16667 7.9132-0.88292 9.9532-1.3362 3.8-0.84 6.8967-1.4567 9.29-1.85 20.573-3.3867 41.153-6.7433 61.74-10.07 13.493-2.1867 23.827-3.9233 31-5.21 2.8-0.5 5.23-0.93667 7.29-1.31z" fill="#dae4f2" fill-rule="evenodd"/>
  <g fill="#00f">
   <path d="m540.05 784.83 47.091-2.9747 0.73299 54.959-42.396 5.6616z"/>
   <path d="m487.2 787.9 42.707-2.6824 5.3534 58.687-44.173 4.3821z"/>
   <path d="m433.55 792.17 45.045-2.9747 3.8133 59.887-44.663 4.0899z"/>
   <path d="m380.73 795.82 45.045-2.9747 2.2731 61.119-45.279 3.4738z"/>
   <path d="m326.98 800.12 45.045-2.9747 1.041 60.503-45.587 4.3979z"/>
   <path d="m273.72 804.34 45.045-2.9747 0.42496 62.043-45.895 2.5497z"/>
  </g>
  <path d="m559.8 740.16s-2.9218 0.12995-4.1641 0.18555c-4.5282 0.20279-5.644 4.3866-5.9258 7.0801-0.7936 7.5858 1.7258 25.215 1.252 29.111l-0.14063 0.0156c0.35334 2.6533 0.71651 5.3118 1.0898 7.9785 0.44666 3.2467 0.71721 5.9133 0.81054 8 0.10667 2.3733 0.78883 13.487 2.0488 33.34 0.46864 7.4409 3.8712 29.591 3.4004 41.762l8.6504-0.81055-7.1055-90.666 0.55274-0.0508z" fill-opacity=".5" stroke-width="1.0206"/>
  <rect transform="matrix(.99615 -.087694 .091942 .99576 0 0)" x="497.11" y="791.58" width="229.11" height="128.85" fill="#cac1b9" stroke-dasharray="7.28685, 7.28685" stroke-width="7.2868"/>
  <g fill-rule="evenodd">
   <path d="m798.36 725.24c0.37 2.1 0.87 4.3 0.93 6.38q0.21 6.57 0.63 10.38 1.41 12.81 2.34 26.39c0.14 2.03 0.73 4.41 0.84 6.15q1.01 16.4 1.22 18.1 1.48 12.13 2.59 28.61 0.65 9.71 1.23 14.48 0.73 5.93 1.48 14.56a2.7678 2.7317 52.056 0 1-0.13 1.11c-0.93 2.75-3.45 4.78-6.77 4.76-2.86-0.02-6.4 0.94-9.7 1.25q-23.41 2.2-55.04 5.63c-40.85 4.44-85.96 8.78-125.7 12.98-6.57 0.69-18.18 1.42-27.09 2.86q-5.63 0.91-10.43 0.01l5.81-6.99 224.35-22.96a1.7366 1.7385 84.654 0 0 1.56-1.88l-10.59-120.99z" fill="#6c6b6a"/>
   <path d="m798.36 725.24-2.47 0.83q-9.93 0.5-20.63 1.6-36.26 3.72-72.5 7.17-4.4 0.42-8.77 0.79-37.39 3.14-87.95 8.59c-7.95 0.86-15.66 0.86-23.92 2.13q-4.87 0.75-9.69 0.81a2.0683 2.0636 87.634 0 0-2.03 2.21q0.75 10.99 1.97 21.51c0.72 6.19 0.62 14.33 1.5 20.81 0.85 6.31 1.13 17.68 2.13 26.43q0.01 0.14 0.97 10.24 0.48 5.17 1.05 15.33 0.79 14.24 2.55 28.21l-5.81 6.99-2.85-3.25a2.1687 2.0976 22.92 0 1-0.54-1.27l-10.07-129.12a3.0835 3.0144 51.476 0 1 0.1-0.98q1.11-3.99 4.67-5.38a1.0161 1.2667 38.736 0 1 0.36-0.08q114.83-10.89 223.07-21.36 2.59-0.25 3.82 0.49c3.18 1.91 5.11 3.53 5.04 7.3z" fill="#dae4f2"/>
   <path d="m803.05 724.49q-1.28-0.48-0.77 2.58l0.41 6.27 0.95 8.85 0.67 8.11 6.51 69.36 0.62 6.37 0.96 11.75 1.2 12.99a1.6006 1.5522 59.052 0 1-0.22 0.94c-2.95 4.92-4.73 8.38-10.79 8.95q-12.07 1.14-12.65 1.18-6.24 0.38-12.6 1.46-6.17 1.04-18.5 1.84c-1.84 0.12-4.2 0.69-6.02 0.86-12.38 1.18-20.84 2.48-31.5 3.33q-1.03 0.08-22.42 2.08c-1.42 0.13-2.87 0.57-4.19 0.65q-6.39 0.37-11.6 1.04-8.64 1.12-11.56 1.22c-6.82 0.22-13.2 1.35-20.66 2.01q-26.65 2.37-49.79 5.33c-4.74 0.6-9.83 0.25-14.98 1.19q-7.38 1.35-8.84 1.54a3.9987 3.9894 62.994 0 1-3.68-1.2l-5.26-5.66a2.5133 2.4825 14.579 0 1-0.53-0.89q-0.99-2.82-0.8-4.64 0.33-3.25-0.19-5.18l-1.08-12.73-0.49-5.51-5.58-72.99-0.62-5.98-0.56-10.3-0.71-7.37q0.31-2.05 0.2-4.28c-0.23-4.88 0.22-8.19 4.44-11.3q1.99-1.46 5.08-1.69 1.39-0.11 6.8-0.87 4.05-0.56 6.82-0.81 21.27-1.85 30.93-2.89 8.18-0.87 17.88-1.58 4.58-0.33 17.89-1.57c1.16-0.11 2.48-0.69 3.75-0.77q7.8-0.49 14.76-0.9c7.36-0.43 14.86-1.74 22.21-2.16q4.58-0.26 8.89-0.75 24.51-2.8 35.65-3.83a2.1424 2.1047 30.254 0 0 0.67-0.17q1.43-0.59 2.94-0.63 15.55-0.4 27.83-2.17 2.22-0.32 7.54-0.45a6.2555 6.8987 42.2 0 0 1.02-0.1q6.78-1.31 11.3-1.08 0.03 0 5.31-0.4 5.76-0.43 9.95 4.09 1.42 1.53 3.41 6.86zm-228.29 154.4q4.8 0.9 10.43-0.01c8.91-1.44 20.52-2.17 27.09-2.86 39.74-4.2 84.85-8.54 125.7-12.98q31.63-3.43 55.04-5.63c3.3-0.31 6.84-1.27 9.7-1.25 3.32 0.02 5.84-2.01 6.77-4.76a2.7678 2.7317 52.056 0 0 0.13-1.11q-0.75-8.63-1.48-14.56-0.58-4.77-1.23-14.48-1.11-16.48-2.59-28.61-0.21-1.7-1.22-18.1c-0.11-1.74-0.7-4.12-0.84-6.15q-0.93-13.58-2.34-26.39-0.42-3.81-0.63-10.38c-0.06-2.08-0.56-4.28-0.93-6.38 0.07-3.77-1.86-5.39-5.04-7.3q-1.23-0.74-3.82-0.49-108.24 10.47-223.07 21.36a1.0161 1.2667 38.736 0 0-0.36 0.08q-3.56 1.39-4.67 5.38a3.0835 3.0144 51.476 0 0-0.1 0.98l10.07 129.12a2.1687 2.0976 22.92 0 0 0.54 1.27z" fill="#161615"/>
  </g>
  <path d="m588.4 762.25 189.8-16.913 7.517 80.808-191.68 20.672z" fill-opacity="0" stroke="#000" stroke-dasharray="5, 5" stroke-width="5"/>
  <text transform="matrix(.97544 -.076593 .070223 1.0197 0 0)" x="569.6991" y="849.77429" fill="#f2f2f2" fill-opacity="0" font-family="'Segoe UI'" font-size="59.318px" font-weight="bold" stroke="#000000" stroke-width="5.6723" xml:space="preserve"><tspan x="569.6991" y="849.77429" fill="#000000" fill-opacity="1" font-family="Arial" font-size="59.318px" font-weight="bold" stroke="none" stroke-width="5.6723">M365</tspan></text>
 </g>
</svg>
