<?xml version="1.0" encoding="UTF-8"?>
<svg width="1214" height="1214" version="1.1" viewBox="0 0 1214 1214" xmlns="http://www.w3.org/2000/svg" xmlns:cc="http://creativecommons.org/ns#" xmlns:dc="http://purl.org/dc/elements/1.1/" xmlns:rdf="http://www.w3.org/1999/02/22-rdf-syntax-ns#">
 <title>M365Wizard</title>
 <g fill-rule="evenodd">
  <path d="m580.78 179.01c-6.54 1.2-10.18-2.6-14.65-7.15q-3.15-3.21-8.87-5.34-8.8-3.28-9.12-3.4a6.3962 6.5053 77.923 0 1-2.25-1.43l-4.78-4.66a9.3453 9.3504 79.976 0 0-2.46-1.72q-4.81-2.31-10.24-3.33c-9.82-1.84-22.47-5.07-30.61-1.32a0.3183 0.3172 48.168 0 0-0.03 0.56q6.63 3.94 9.63 5.54c3.89 2.08 7.88 5.31 12.25 7.87 5.96 3.5 13.21 9.34 18.08 12.37 5.85 3.64 9.75 6.55 15.63 10.2q4.67 2.9 6.87 4.93c4.55 4.21 9.46 7.16 13.78 10.81q23.63 19.95 37.91 33.9c16.88 16.47 33.46 35.08 49.78 53.58q4.32 4.89 7.36 7.95c4.88 4.91 8.66 10.14 13.24 15.61q14.72 17.6 38.38 45.49 3.6 4.24 6.38 7.95c5.46 7.28 10.11 12.66 15.45 20.24q3.58 5.09 12.19 16.16 7.1 9.11 12.04 16.13 11.52 16.37 19.55 28.28 1.36 2.02 3.75 2.11 14.03 29.09 25.1 54.49 40.11 91.94 74.24 188.79 2.93 8.33 8.89 26.91 0 0.96-1.07 1.14-47.79 7.9-96.15 14.82-1.99-5.33-3.41-6.86-4.19-4.52-9.95-4.09-5.28 0.4-5.31 0.4-4.52-0.23-11.3 1.08a6.2555 6.8987 42.2 0 1-1.02 0.1q-5.32 0.13-7.54 0.45-12.28 1.77-27.83 2.17-1.51 0.04-2.94 0.63a2.1424 2.1047 30.254 0 1-0.67 0.17q-11.14 1.03-35.65 3.83-4.31 0.49-8.89 0.75c-7.35 0.42-14.85 1.73-22.21 2.16q-6.96 0.41-14.76 0.9c-1.27 0.08-2.59 0.66-3.75 0.77q-13.31 1.24-17.89 1.57-9.7 0.71-17.88 1.58-9.66 1.04-30.93 2.89-2.77 0.25-6.82 0.81-5.41 0.76-6.8 0.87-3.09 0.23-5.08 1.69c-4.22 3.11-4.67 6.42-4.44 11.3q0.11 2.23-0.2 4.28l-83.89 6.89q-3.37-1.73-7.09-2.27-12.95-1.87-26.42-4.44-7.85-1.5-29.04-8.95-7.82-2.75-18.2-8.25-10.51-5.57-17.86-12.94c-11.6-11.63-14.32-28.29-14.86-43.9-1.47-42.36 3.02-84.96 9.53-128.53q0.05-0.3 1.36-13.05 0.88-8.58 3.48-16.93c9.7 3.29 16.59 7.28 20.24 17.66q3.2 9.09 6.35 18.38 0.83 2.45 3.68 2.96c2.83 0.5 4.04-1.54 4.64-4.12q1.25-5.41 4.68-19.8c1.33-5.59 5.89-12.84 11.65-16.16 5.92-3.42 10.99-5.25 18.61-8.01q2.28-0.82 2.34-3.81a1.6079 1.6382 27.656 0 0-0.29-0.96q-1.23-1.84-2.17-2.04-5.09-1.08-17.24-4.46-10.41-2.89-14.86-12.6-3.66-7.99-7.96-22.5c-1.55-5.25-6.84-4.99-7.9 0.36q-1.56 7.9-4.34 18.77c-2.38 9.28-6.32 16.14-15.61 19.85q-0.83-16.24-0.53-29.81 1.09-49.88 0.67-86.31-0.27-23.73 2.92-44.82 3.48-22.96 18.1-42.38 6.5-8.64 6.91-9.19a1.4528 1.3907 64.071 0 0 0.27-0.84q-0.01-1.93-1.16-2.73a1.2323 1.2539 57.593 0 0-0.98-0.21q-3.08 0.6-10.22 3.22c-10.14 3.72-22.34 4.9-31.76-1.52-13.31-9.06-21.66-19.05-31.66-33-8.28-11.54-13.21-22.23-19.66-36.8-3.75-8.48-5.35-14.26-7.54-22.97a1.7226 1.7225 66.268 0 0-2.62-1.02q-4.86 3.19-7.32 8.36c-4.7 9.89-6.64 15.51-11.58 21.45a2.3722 2.3742 17.777 0 1-1.67 0.86q-9.3 0.68-18.59 2.07-24.93 3.71-46.83 17.16-7.13 4.38-26.69 17.42-4.22 2.81-9.32 7.01-8.77 7.24-9.1 7.33-0.07 0.02-13.34 10.95-8.03 6.62-14.12 10.22-3.86 2.29-10.8 3.09-5.67-4.18-7.53-10.86c-2.4-8.64 1.32-19.24 5.27-27.31q6.38-13.03 10.24-19 23.16-35.84 54.06-65.93 22.57-21.97 46.28-38.19c36.28-24.83 78.02-42.4 121.92-48.4 43.94-6.01 87.65 5.93 128.4 22.18q14.41 5.75 31.34 14.71 32.73 17.33 62.81 39.18zm-86.73 118.22c-1.77 1.53-1.54 4.8 0.81 5.69q2.05 0.77 6.26 1.53 5.78 1.05 15.7 4.8c7.67 2.9 10.83 9.41 14.35 17.93q3.02 7.29 5.09 14.04c1.37 4.47 7.05 5.21 8.25 0.01 2.96-12.82 4.36-29.58 17.26-36.44q7.45-3.98 16.26-6.96c1.49-0.5 3.65-2.7 3.08-4.53-0.63-2.03-1.59-2.7-3.77-3.27q-10.92-2.82-14.45-4.17c-5.11-1.95-11.62-4.65-14.16-9.07q-6.03-10.47-10.96-26.25c-0.62-1.96-3.47-3.81-5.62-2.11q-1.68 1.32-1.86 2.37-1.97 11.44-4.62 20.61-1.92 6.66-6.53 12.22a6.7782 7.0788 3.6562 0 1-1.36 1.25c-7.26 5.09-12.1 7.15-19.95 10.19q-2.35 0.92-3.78 2.16zm-45.076 86.653a10.3 9.9 85.4 0 0-9.042 11.061 10.3 9.9 85.4 0 0 10.694 9.4728 10.3 9.9 85.4 0 0 9.0421-11.061 10.3 9.9 85.4 0 0-10.694-9.4728zm241.22 19.937c-1.91-1.58-4.11-0.16-4.43 1.92-0.85 5.44-2.76 14.6-5.45 17.82q-2.8 3.35-8.37 5.57c-3.28 1.31-7.3 1.96-8.69 3.84-1.66 2.23-0.29 5.07 2.17 5.72 5.69 1.51 13.38 2.96 17.19 8.61q2.17 3.23 6.16 14.68a1.9562 1.8093 14.868 0 0 0.45 0.71c2.29 2.24 5.01 1.02 5.62-1.8 1.46-6.81 2.53-15.16 9.09-19.2q4.08-2.51 9.54-4.45c3.61-1.28 4.15-5.52 0.27-6.96q-7.52-2.79-12.6-5.25a5.0864 2.6625 22.155 0 1-0.62-0.34q-1.53-0.94-3.68-4.76-4.36-7.77-5.58-13.38-0.49-2.25-1.07-2.73zm-140.95 152.39q-1.5 0.26-2.61 2.03a1.5857 1.4801 69.592 0 0-0.2 0.48q-0.83 3.73-4.6 17.75-1.74 6.47-3.83 8.97-3.58 4.28-7.7 6.12-6.45 2.87-16.11 6.34-2.48 0.9-2.16 4.09a1.6575 1.6495 20.557 0 0 0.43 0.94q1.62 1.72 2.57 1.9 11.02 2.18 11.18 2.22 0.54 0.14 7.45 2.84c5.4 2.11 8.35 5.27 10.24 10.22q2.71 7.06 6.75 18.4c0.74 2.06 1.81 3.31 3.93 3.38 1.57 0.04 2.99-2.09 3.26-3.33q1.59-7.2 4.31-17.91c1.32-5.18 5.56-11.62 10.94-14.06q10.4-4.72 15.15-6.18c1.97-0.61 3.33-3.72 1.94-5.43q-0.68-0.84-2.69-1.38-8.24-2.22-16.59-5.03c-9.6-3.23-11.55-10.6-15.04-20.9q-1.73-5.11-3.37-9.69a2.7617 2.9693 75.649 0 0-3.25-1.77zm193.94 25.35q-2.81-1.33-6.85-0.91c-8.55 0.9-8.15 9.96-5.03 15.57a1.9355 1.9406 80.897 0 0 1.33 0.96q5.73 1.05 11.35-0.56a1.5142 1.5164 87.159 0 0 1.07-1.18q1.29-7.11-1.07-13.01a1.6324 1.6255 2.5214 0 0-0.8-0.87zm-293.85 79.536a11.28 11.72 6.1 0 0-12.462 10.455 11.28 11.72 6.1 0 0 9.9707 12.852 11.28 11.72 6.1 0 0 12.462-10.455 11.28 11.72 6.1 0 0-9.9707-12.852z" fill="#06305f"/>
  <path d="m580.78 179.08q40.21 29.087 74.56 65.041 4.05 4.2499 15.92 17.32c13.89 15.326 26.45 31.894 37.85 47.851 11.42 15.987 23.49 34.129 34.27 52.552q25.46 43.471 46.66 89.197-2.39-0.09-3.75-2.1149-8.03-11.938-19.55-28.346-4.94-7.0363-12.04-16.167-8.61-11.096-12.19-16.198c-5.34-7.5976-9.99-12.99-15.45-20.287q-2.78-3.7186-6.38-7.9685-23.66-27.955-38.38-45.596c-4.58-5.4827-8.36-10.725-13.24-15.646q-3.04-3.0671-7.36-7.9685c-16.32-18.543-32.9-37.196-49.78-53.704q-14.28-13.982-37.91-33.979c-4.32-3.6585-9.23-6.6153-13.78-10.835q-2.2-2.0347-6.87-4.9414c-5.88-3.6585-9.78-6.5753-15.63-10.224-4.87-3.037-12.12-8.8906-18.08-12.399-4.37-2.566-8.36-5.8034-12.25-7.8883q-3-1.6037-9.63-5.5529a0.31881 0.31742 64.07 0 1 0.03-0.56128c8.14-3.7587 20.79-0.52124 30.61 1.323q5.43 1.0224 10.24 3.3378a9.3502 9.3672 2.9543 0 1 2.46 1.724l4.78 4.6708a6.4103 6.5061 76.088 0 0 2.25 1.4334q0.32 0.12028 9.12 3.4079 5.72 2.1349 8.87 5.3524c4.47 4.5606 8.11 8.3694 14.65 7.1666z" fill="#204678" stroke-width="1.0012"/>
  <path d="m374.61 515.09q-6.96 3.03-14.27 6.08c-5.15 2.14-4.39 6.51 0.72 7.76q5.83 1.44 11.73 2.64-2.6 8.35-3.48 16.93-1.31 12.75-1.36 13.05c-6.51 43.57-11 86.17-9.53 128.53 0.54 15.61 3.26 32.27 14.86 43.9q7.35 7.37 17.86 12.94 10.38 5.5 18.2 8.25 21.19 7.45 29.04 8.95 13.47 2.57 26.42 4.44 3.72 0.54 7.09 2.27-79.6 6.15-117.87 8.24-38.47 2.1-76.93 4.24a1.1327 0.6034 47.335 0 1-0.6-0.21q-0.12-0.08-0.29-0.16 2.34-18.79 3.77-27.45 5.95-36.15 21.09-125.32 12.06-70.97 18.22-111.91c3.1-20.63 7.32-50.16 10.36-76.67q4.35-38.02 5.81-50.83 1.33-11.74 5.85-20.29a0.8869 0.8972 42.152 0 0-0.04-0.91q-3.12-4.7-3.96-6.6c-6.4-14.59-13.53-34.42-20.73-50.17q-2.27-4.99-11.79-26.21a2.0674 2.1092 0.5729 0 0-0.98-1.02c-6.08-3.03-11.84-7.27-17.58-9.15q-14.48-4.73-26-3.85-14.41 1.1-28.71 6.44c-10.42 3.89-19.62 7.69-29.85 12.78q-14.94 7.43-33.5 16.78c-13.07 6.58-26.68 12.28-40.17 4.07q6.94-0.8 10.8-3.09 6.09-3.6 14.12-10.22 13.27-10.93 13.34-10.95 0.33-0.09 9.1-7.33 5.1-4.2 9.32-7.01 19.56-13.04 26.69-17.42 21.9-13.45 46.83-17.16 9.29-1.39 18.59-2.07a2.3722 2.3742 17.777 0 0 1.67-0.86c4.94-5.94 6.88-11.56 11.58-21.45q2.46-5.17 7.32-8.36a1.7226 1.7225 66.268 0 1 2.62 1.02c2.19 8.71 3.79 14.49 7.54 22.97 6.45 14.57 11.38 25.26 19.66 36.8 10 13.95 18.35 23.94 31.66 33 9.42 6.42 21.62 5.24 31.76 1.52q7.14-2.62 10.22-3.22a1.2323 1.2539 57.593 0 1 0.98 0.21q1.15 0.8 1.16 2.73a1.4528 1.3907 64.071 0 1-0.27 0.84q-0.41 0.55-6.91 9.19-14.62 19.42-18.1 42.38-3.19 21.09-2.92 44.82 0.42 36.43-0.67 86.31-0.3 13.57 0.53 29.81z" fill="#022247"/>
  <path d="m494.86 302.92c-2.35-0.89-2.58-4.16-0.81-5.69q1.43-1.24 3.78-2.16c7.85-3.04 12.69-5.1 19.95-10.19a6.7782 7.0788 3.6562 0 0 1.36-1.25q4.61-5.56 6.53-12.22 2.65-9.17 4.62-20.61 0.18-1.05 1.86-2.37c2.15-1.7 5 0.15 5.62 2.11q4.93 15.78 10.96 26.25c2.54 4.42 9.05 7.12 14.16 9.07q3.53 1.35 14.45 4.17c2.18 0.57 3.14 1.24 3.77 3.27 0.57 1.83-1.59 4.03-3.08 4.53q-8.81 2.98-16.26 6.96c-12.9 6.86-14.3 23.62-17.26 36.44-1.2 5.2-6.88 4.46-8.25-0.01q-2.07-6.75-5.09-14.04c-3.52-8.52-6.68-15.03-14.35-17.93q-9.92-3.75-15.7-4.8-4.21-0.76-6.26-1.53z" fill="#ffd950"/>
  <path d="m448.97 383.88a10.3 9.9 85.4 0 1 10.694 9.4728 10.3 9.9 85.4 0 1-9.0421 11.061 10.3 9.9 85.4 0 1-10.694-9.4728 10.3 9.9 85.4 0 1 9.042-11.061z" fill="#00c8bd"/>
  <path d="m685.76 405.74c0.32-2.08 2.52-3.5 4.43-1.92q0.58 0.48 1.07 2.73 1.22 5.61 5.58 13.38 2.15 3.82 3.68 4.76a5.0864 2.6625 22.155 0 0 0.62 0.34q5.08 2.46 12.6 5.25c3.88 1.44 3.34 5.68-0.27 6.96q-5.46 1.94-9.54 4.45c-6.56 4.04-7.63 12.39-9.09 19.2-0.61 2.82-3.33 4.04-5.62 1.8a1.9562 1.8093 14.868 0 1-0.45-0.71q-3.99-11.45-6.16-14.68c-3.81-5.65-11.5-7.1-17.19-8.61-2.46-0.65-3.83-3.49-2.17-5.72 1.39-1.88 5.41-2.53 8.69-3.84q5.57-2.22 8.37-5.57c2.69-3.22 4.6-12.38 5.45-17.82z" fill="#00c8bd"/>
  <path d="m372.79 531.57q-5.9-1.2-11.73-2.64c-5.11-1.25-5.87-5.62-0.72-7.76q7.31-3.05 14.27-6.08c9.29-3.71 13.23-10.57 15.61-19.85q2.78-10.87 4.34-18.77c1.06-5.35 6.35-5.61 7.9-0.36q4.3 14.51 7.96 22.5 4.45 9.71 14.86 12.6 12.15 3.38 17.24 4.46 0.94 0.2 2.17 2.04a1.6079 1.6382 27.656 0 1 0.29 0.96q-0.06 2.99-2.34 3.81c-7.62 2.76-12.69 4.59-18.61 8.01-5.76 3.32-10.32 10.57-11.65 16.16q-3.43 14.39-4.68 19.8c-0.6 2.58-1.81 4.62-4.64 4.12q-2.85-0.51-3.68-2.96-3.15-9.29-6.35-18.38c-3.65-10.38-10.54-14.37-20.24-17.66z" fill="#fff"/>
  <path d="m549.24 556.21a2.7617 2.9693 75.649 0 1 3.25 1.77q1.64 4.58 3.37 9.69c3.49 10.3 5.44 17.67 15.04 20.9q8.35 2.81 16.59 5.03 2.01 0.54 2.69 1.38c1.39 1.71 0.03 4.82-1.94 5.43q-4.75 1.46-15.15 6.18c-5.38 2.44-9.62 8.88-10.94 14.06q-2.72 10.71-4.31 17.91c-0.27 1.24-1.69 3.37-3.26 3.33-2.12-0.07-3.19-1.32-3.93-3.38q-4.04-11.34-6.75-18.4c-1.89-4.95-4.84-8.11-10.24-10.22q-6.91-2.7-7.45-2.84-0.16-0.04-11.18-2.22-0.95-0.18-2.57-1.9a1.6575 1.6495 20.557 0 1-0.43-0.94q-0.32-3.19 2.16-4.09 9.66-3.47 16.11-6.34 4.12-1.84 7.7-6.12 2.09-2.5 3.83-8.97 3.77-14.02 4.6-17.75a1.5857 1.4801 69.592 0 1 0.2-0.48q1.11-1.77 2.61-2.03z" fill="#00aec9"/>
  <path d="m743.98 582.43q2.36 5.9 1.07 13.01a1.5142 1.5164 87.159 0 1-1.07 1.18q-5.62 1.61-11.35 0.56a1.9355 1.9406 80.897 0 1-1.33-0.96c-3.12-5.61-3.52-14.67 5.03-15.57q4.04-0.42 6.85 0.91a1.6324 1.6255 2.5214 0 1 0.8 0.87z" fill="#01436c"/>
  <path d="m449.33 661.1a11.28 11.72 6.1 0 1 9.9707 12.852 11.28 11.72 6.1 0 1-12.462 10.455 11.28 11.72 6.1 0 1-9.9707-12.852 11.28 11.72 6.1 0 1 12.462-10.455z" fill="#00c8bd"/>
  <path d="m946.41 825.18-5.16 2.75c-9.37 1.68-19.15 3.74-28.03 5.23q-50.99 8.57-102.82 16.62l-0.96-11.75q1.09 0.35 1.62-0.48a0.9025 0.8777 14.099 0 1 0.69-0.4c1.49-0.1 2.97 0.13 4.92-0.17q55.78-8.67 69.97-11.23 31.14-5.61 39.23-6.56c3.76-0.45 6.58-1.83 5.88-5.89q-0.2-1.19-1.72-1.14 1.45-0.14 1.25-1.17-3.97-20.36-7.89-41.76c-2.05-11.16-2.96-21.02-5.57-31.05a2.2552 2.2504 79.771 0 0-2.4-1.67q-10.88 1.07-19.35 2.63-7.69 1.41-12.16 2.14-41.03 6.71-82.27 12.91l-0.95-8.85q2.08-1.12 4.14-1.5c12.19-2.24 26.02-3.79 37.51-5.67q19.33-3.17 22.67-3.53 4.33-0.47 11.48-2.08 5.51-1.23 13.75-1.82 2.01-0.14 11.82-2.41 1.08-0.25 15.68-1.66c4.33-0.41 7.16 0.62 9.03 4.32a0.3125 0.3098 30.486 0 0 0.59-0.15c-0.14-3.25 0.07-6.42-2.66-8.32-2.59-1.79-5.86-1.82-8.96-1.03q-11.67 3-21.78 3.45a5.8554 5.7177 35.062 0 0-1.35 0.22q-5.92 1.74-11.78 2.3-6.75 0.63-12.49 1.63-13.36 2.31-24.57 3.79-8.87 1.17-12.25 1.81c-10.15 1.92-15.52 2.43-26.72 4.13a1.3796 1.4679 48.936 0 1-0.53-0.02q-2.85-0.69-3.99 0.27-0.51-3.06 0.77-2.58 48.36-6.92 96.15-14.82 1.07-0.18 1.07-1.14 0.54 0.74 1.18 0.62 7.39-1.38 15.98-2.57 6.01-0.83 8.56 0.38c7.69 3.63 7.36 14.47 8.76 21.61q5.36 27.48 10.5 58.04c1.35 8.04 2.73 13.38 4.41 21.05a1.1523 1.1756 45.573 0 1-0.01 0.5z" fill="#cac1b9"/>
  <path d="m800.69 745.34-0.41-6.27q1.14-0.96 3.99-0.27a1.3796 1.4679 48.936 0 0 0.53 0.02c11.2-1.7 16.57-2.21 26.72-4.13q3.38-0.64 12.25-1.81 11.21-1.48 24.57-3.79 5.74-1 12.49-1.63 5.86-0.56 11.78-2.3a5.8554 5.7177 35.062 0 1 1.35-0.22q10.11-0.45 21.78-3.45c3.1-0.79 6.37-0.76 8.96 1.03 2.73 1.9 2.52 5.07 2.66 8.32a0.3125 0.3098 30.486 0 1-0.59 0.15c-1.87-3.7-4.7-4.73-9.03-4.32q-14.6 1.41-15.68 1.66-9.81 2.27-11.82 2.41-8.24 0.59-13.75 1.82-7.15 1.61-11.48 2.08-3.34 0.36-22.67 3.53c-11.49 1.88-25.32 3.43-37.51 5.67q-2.06 0.38-4.14 1.5z" fill="#dae4f2"/>
  <path d="m930.03 812.16-3.47 0.63q-1.85-3.27-2.51-8.35-1.45-11.22-4.4-25.46-1.13-5.43-1.64-9.47c-1.15-9.12-3.96-17.46-4.77-25.72a0.8762 0.8821 82.87 0 0-1.01-0.78c-6.61 1.04-12.66 2.74-19.11 3.58q-10.3 1.33-41.86 6.22-25.51 3.95-48.09 7.33a0.697 0.7016 1.1758 0 0-0.59 0.57l-0.27 1.59-0.67-8.11q41.24-6.2 82.27-12.91 4.47-0.73 12.16-2.14 8.47-1.56 19.35-2.63a2.2552 2.2504 79.771 0 1 2.4 1.67c2.61 10.03 3.52 19.89 5.57 31.05q3.92 21.4 7.89 41.76 0.2 1.03-1.25 1.17z" fill="#6c6b6a"/>
  <path d="m926.56 812.79q-3.09 0.56-7.29 1.31-10.76 1.93-31 5.21-30.88 4.99-61.74 10.07-3.59 0.59-9.29 1.85-3.06 0.68-8.42 0.43l-6.51-69.36 0.27-1.59a0.697 0.7016 1.1758 0 1 0.59-0.57q22.58-3.38 48.09-7.33 31.56-4.89 41.86-6.22c6.45-0.84 12.5-2.54 19.11-3.58a0.8762 0.8821 82.87 0 1 1.01 0.78c0.81 8.26 3.62 16.6 4.77 25.72q0.51 4.04 1.64 9.47 2.95 14.24 4.4 25.46 0.66 5.08 2.51 8.35z" fill="#cac1b9"/>
  <path d="m555.78 763.94 0.71 7.37-6.23 0.72a1.4156 1.4131 85.62 0 0-1.25 1.46q0.19 4.72-0.97 8.74c-5.46 0.35-11.43 1.2-16.15 1.46-15.82 0.89-28.8 2.45-44.54 3.42q-1.13 0.07-34.64 2.63-23.38 1.79-34.66 2.57-27.69 1.91-125.55 8.23c-8.8 0.57-14.69 0.39-22.57 1.24q-4.52 0.48-10.71 0.55a2.1311 2.1419 0.4187 0 0-2.11 2.09l-1.87 83.69q-0.78 3.36 1.73 4.81 1.41 0.82 3.08 0.64 9.42-1.03 19.29-1.1c6.95-0.05 13.24-1.45 20.49-1.9q12.43-0.79 42.41-2.9c3.69-0.26 8.28-0.99 11.83-1.28q12.47-1.03 28.92-2.11c4.99-0.33 8.99-0.94 14.01-1.51q3.85-0.44 10.53-0.75 14-0.65 28.71-2.82c6.15-0.91 19.12-0.98 29.09-2.3 6.92-0.92 12.79-1.07 20.69-2.04q3.66-0.45 11.5-1.24c18.18-1.82 24.26-2.66 36.9-3.68q7.48-0.6 14.33-1.85 1.84-0.34 6.25-0.12a1.2164 1.2234 89.395 0 0 1.29-1.31l-0.26-3.25a2.2015 2.2008 83.566 0 0-2.52-2.01q-14.51 2.2-25.84 3.23-18.68 1.71-23.38 2.28-11.59 1.42-23.35 2.56-3.53 0.34-8.39 2.24a4.5032 4.6724 35.577 0 1-1.73 0.32c-7.35-0.05-13.02-0.23-18.77 0.28-9.31 0.82-17.15 1.77-26.42 2.1q-10.46 0.38-22.12 2.41-1.61 0.28-10.52 0.46-5.93 0.12-10.49 0.73-8.06 1.07-10.03 1.11-4.81 0.12-10.06 0.85-3.69 0.52-17.4 1.07-9.13 0.36-28.28 2.34-9.03 0.94-24.5 1.84-11.59 0.68-24.47 2.11-2.8 0.31-7.11-0.64l1.63-77.21a0.8611 0.8605 1.9528 0 1 0.9-0.84q4.37 0.21 9.07-0.15 16.46-1.24 28.03-1.91c8.69-0.5 14.17-1.38 22-1.64q20.97-0.68 39.81-2.25c17.55-1.46 31.27-1.97 50.41-3.67 5.19-0.46 11.34-0.33 16-0.75q16.46-1.51 41.57-3.45c3.28-0.25 7.24 0.03 10.22-0.27q6.53-0.65 17.2-1.85c2.05-0.23 4.95-0.01 7.34-0.26q21.54-2.3 43.99-3.88 0.53 3.98 1.09 7.98 0.67 4.87 0.81 8 0.16 3.56 2.05 33.34c0.49 7.78 2.15 14.92 2.15 22.47a1.2316 1.2265 85.952 0 0 1.4 1.22l6.93-0.98 0.49 5.51q-1.94 1.35-6.01 0.95a1.0159 1.0217 3.7211 0 0-1.11 0.98l-0.45 11.61q-42.28 4.36-84.94 8.38-42.73 4.04-85.48 7.92-28.9 2.62-133.25 10.1-3.78 0.27-6.25-0.57l-4.46-4.06q-0.09-3.21 0.18-6.45 0.36-4.41 0.41-6.43 1.5-70.45 2.31-92.47 0.28-7.39 6.33-10.35 2.44-1.19 12.11-1.71 6.77-0.36 12.52-0.61a0.4383 0.4146 28.155 0 0 0.22-0.06q0.28-0.16 0.33-0.38 0.17 0.08 0.29 0.16a1.1327 0.6034 47.335 0 0 0.6 0.21q38.46-2.14 76.93-4.24 38.27-2.09 117.87-8.24zm-5.98 3.15q-11.72 1.37-23.99 2.18-9.93 0.66-19.16 1.46-21.75 1.87-34.19 3.03-8.93 0.83-15.35 0.97c-10.32 0.23-18.67 1.63-30.23 2.23-8.57 0.44-17.15 1.54-26.5 1.86q-0.75 0.03-11.62 0.76-26.13 1.77-44.48 2.95-17.82 1.15-24.72 1.5-15.86 0.78-24.68 1.7-4.04 0.43-11.26 0.41-4.41-0.01-11.23 0.77c-6.26 0.71-13.16 0.88-17.63 1.4q-2.93 0.34-5 3.03a0.7435 0.7475 17.523 0 0 0.62 1.2q7.9-0.37 12.88-0.96c5.57-0.67 10.53-0.35 15.99-0.66q20.79-1.18 95.37-5.6c6.58-0.39 13.06-1.16 20.19-1.39 8.79-0.29 19.3-1.72 27.61-1.95q5.68-0.15 14.08-1.06c7.41-0.79 16.19-0.74 23.53-1.54 6.98-0.77 12.65-0.9 19.9-1.51q26.3-2.21 33.92-2.62 6.39-0.35 16.24-1.54 5.7-0.69 16.27-1.07a3.9985 3.9801 13.803 0 0 3.32-2l1.15-1.99a1.0477 1.0445 11.651 0 0-1.03-1.56z" fill="#cac1b9"/>
  <path d="m549.8 767.09a1.0477 1.0445 11.651 0 1 1.03 1.56l-1.15 1.99a3.9985 3.9801 13.803 0 1-3.32 2q-10.57 0.38-16.27 1.07-9.85 1.19-16.24 1.54-7.62 0.41-33.92 2.62c-7.25 0.61-12.92 0.74-19.9 1.51-7.34 0.8-16.12 0.75-23.53 1.54q-8.4 0.91-14.08 1.06c-8.31 0.23-18.82 1.66-27.61 1.95-7.13 0.23-13.61 1-20.19 1.39q-74.58 4.42-95.37 5.6c-5.46 0.31-10.42-0.01-15.99 0.66q-4.98 0.59-12.88 0.96a0.7435 0.7475 17.523 0 1-0.62-1.2q2.07-2.69 5-3.03c4.47-0.52 11.37-0.69 17.63-1.4q6.82-0.78 11.23-0.77 7.22 0.02 11.26-0.41 8.82-0.92 24.68-1.7 6.9-0.35 24.72-1.5 18.35-1.18 44.48-2.95 10.87-0.73 11.62-0.76c9.35-0.32 17.93-1.42 26.5-1.86 11.56-0.6 19.91-2 30.23-2.23q6.42-0.14 15.35-0.97 12.44-1.16 34.19-3.03 9.23-0.8 19.16-1.46 12.27-0.81 23.99-2.18z" fill="#dae4f2"/>
  <path d="m556.49 771.31 0.56 10.3-9.01 0.62q1.16-4.02 0.97-8.74a1.4156 1.4131 85.62 0 1 1.25-1.46z" fill="#909090"/>
  <path d="m557.05 781.61 0.62 5.98-8.85 0.96q-22.45 1.58-43.99 3.88c-2.39 0.25-5.29 0.03-7.34 0.26q-10.67 1.2-17.2 1.85c-2.98 0.3-6.94 0.02-10.22 0.27q-25.11 1.94-41.57 3.45c-4.66 0.42-10.81 0.29-16 0.75-19.14 1.7-32.86 2.21-50.41 3.67q-18.84 1.57-39.81 2.25c-7.83 0.26-13.31 1.14-22 1.64q-11.57 0.67-28.03 1.91-4.7 0.36-9.07 0.15a0.8611 0.8605 1.9528 0 0-0.9 0.84l-1.63 77.21q-2.51-0.93-5.41 1.43l1.87-83.69a2.1311 2.1419 0.4187 0 1 2.11-2.09q6.19-0.07 10.71-0.55c7.88-0.85 13.77-0.67 22.57-1.24q97.86-6.32 125.55-8.23 11.28-0.78 34.66-2.57 33.51-2.56 34.64-2.63c15.74-0.97 28.72-2.53 44.54-3.42 4.72-0.26 10.69-1.11 16.15-1.46z" fill="#6c6b6a"/>
 </g>
 <g fill="#00f">
  <path d="m538.05 796.83 47.091-2.9747 0.73299 54.959-42.396 5.6616z"/>
  <path d="m485.2 799.9 42.707-2.6824 5.3534 58.687-44.173 4.3821z"/>
  <path d="m431.55 804.17 45.045-2.9747 3.8133 59.887-44.663 4.0899z"/>
  <path d="m378.73 807.82 45.045-2.9747 2.2731 61.119-45.279 3.4738z"/>
  <path d="m324.98 812.12 45.045-2.9747 1.041 60.503-45.587 4.3979z"/>
  <path d="m271.72 816.34 45.045-2.9747 0.42496 62.043-45.895 2.5497z"/>
 </g>
 <path d="m557.67 787.59 5.58 72.99-6.93 0.98a1.2316 1.2265 85.952 0 1-1.4-1.22c0-7.55-1.66-14.69-2.15-22.47q-1.89-29.78-2.05-33.34-0.14-3.13-0.81-8-0.56-4-1.09-7.98z" fill="#909090" fill-rule="evenodd"/>
 <path d="m549.83 796.06 37.206-2.8586 0.57913 52.814-33.517 7.2115z" fill="#0000c6"/>
 <g fill-rule="evenodd">
  <path d="m793.89 738.07 10.59 120.99a1.7366 1.7385 84.654 0 1-1.56 1.88l-224.35 22.96q-1.76-13.97-2.55-28.21-0.57-10.16-1.05-15.33-0.96-10.1-0.97-10.24c-1-8.75-1.28-20.12-2.13-26.43-0.88-6.48-0.78-14.62-1.5-20.81q-1.22-10.52-1.97-21.51a2.0683 2.0636 87.634 0 1 2.03-2.21q4.82-0.06 9.69-0.81c8.26-1.27 15.97-1.27 23.92-2.13q50.56-5.45 87.95-8.59 4.37-0.37 8.77-0.79 36.24-3.45 72.5-7.17 10.7-1.1 20.63-1.6z" fill="#cac1b9"/>
  <path d="m796.36 737.24c0.37 2.1 0.87 4.3 0.93 6.38q0.21 6.57 0.63 10.38 1.41 12.81 2.34 26.39c0.14 2.03 0.73 4.41 0.84 6.15q1.01 16.4 1.22 18.1 1.48 12.13 2.59 28.61 0.65 9.71 1.23 14.48 0.73 5.93 1.48 14.56a2.7678 2.7317 52.056 0 1-0.13 1.11c-0.93 2.75-3.45 4.78-6.77 4.76-2.86-0.02-6.4 0.94-9.7 1.25q-23.41 2.2-55.04 5.63c-40.85 4.44-85.96 8.78-125.7 12.98-6.57 0.69-18.18 1.42-27.09 2.86q-5.63 0.91-10.43 0.01l5.81-6.99 224.35-22.96a1.7366 1.7385 84.654 0 0 1.56-1.88l-10.59-120.99z" fill="#6c6b6a"/>
  <path d="m796.36 737.24-2.47 0.83q-9.93 0.5-20.63 1.6-36.26 3.72-72.5 7.17-4.4 0.42-8.77 0.79-37.39 3.14-87.95 8.59c-7.95 0.86-15.66 0.86-23.92 2.13q-4.87 0.75-9.69 0.81a2.0683 2.0636 87.634 0 0-2.03 2.21q0.75 10.99 1.97 21.51c0.72 6.19 0.62 14.33 1.5 20.81 0.85 6.31 1.13 17.68 2.13 26.43q0.01 0.14 0.97 10.24 0.48 5.17 1.05 15.33 0.79 14.24 2.55 28.21l-5.81 6.99-2.85-3.25a2.1687 2.0976 22.92 0 1-0.54-1.27l-10.07-129.12a3.0835 3.0144 51.476 0 1 0.1-0.98q1.11-3.99 4.67-5.38a1.0161 1.2667 38.736 0 1 0.36-0.08q114.83-10.89 223.07-21.36 2.59-0.25 3.82 0.49c3.18 1.91 5.11 3.53 5.04 7.3z" fill="#dae4f2"/>
  <path d="m801.05 736.49q-1.28-0.48-0.77 2.58l0.41 6.27 0.95 8.85 0.67 8.11 6.51 69.36 0.62 6.37 0.96 11.75 1.2 12.99a1.6006 1.5522 59.052 0 1-0.22 0.94c-2.95 4.92-4.73 8.38-10.79 8.95q-12.07 1.14-12.65 1.18-6.24 0.38-12.6 1.46-6.17 1.04-18.5 1.84c-1.84 0.12-4.2 0.69-6.02 0.86-12.38 1.18-20.84 2.48-31.5 3.33q-1.03 0.08-22.42 2.08c-1.42 0.13-2.87 0.57-4.19 0.65q-6.39 0.37-11.6 1.04-8.64 1.12-11.56 1.22c-6.82 0.22-13.2 1.35-20.66 2.01q-26.65 2.37-49.79 5.33c-4.74 0.6-9.83 0.25-14.98 1.19q-7.38 1.35-8.84 1.54a3.9987 3.9894 62.994 0 1-3.68-1.2l-5.26-5.66a2.5133 2.4825 14.579 0 1-0.53-0.89q-0.99-2.82-0.8-4.64 0.33-3.25-0.19-5.18l-1.08-12.73-0.49-5.51-5.58-72.99-0.62-5.98-0.56-10.3-0.71-7.37q0.31-2.05 0.2-4.28c-0.23-4.88 0.22-8.19 4.44-11.3q1.99-1.46 5.08-1.69 1.39-0.11 6.8-0.87 4.05-0.56 6.82-0.81 21.27-1.85 30.93-2.89 8.18-0.87 17.88-1.58 4.58-0.33 17.89-1.57c1.16-0.11 2.48-0.69 3.75-0.77q7.8-0.49 14.76-0.9c7.36-0.43 14.86-1.74 22.21-2.16q4.58-0.26 8.89-0.75 24.51-2.8 35.65-3.83a2.1424 2.1047 30.254 0 0 0.67-0.17q1.43-0.59 2.94-0.63 15.55-0.4 27.83-2.17 2.22-0.32 7.54-0.45a6.2555 6.8987 42.2 0 0 1.02-0.1q6.78-1.31 11.3-1.08 0.03 0 5.31-0.4 5.76-0.43 9.95 4.09 1.42 1.53 3.41 6.86zm-228.29 154.4q4.8 0.9 10.43-0.01c8.91-1.44 20.52-2.17 27.09-2.86 39.74-4.2 84.85-8.54 125.7-12.98q31.63-3.43 55.04-5.63c3.3-0.31 6.84-1.27 9.7-1.25 3.32 0.02 5.84-2.01 6.77-4.76a2.7678 2.7317 52.056 0 0 0.13-1.11q-0.75-8.63-1.48-14.56-0.58-4.77-1.23-14.48-1.11-16.48-2.59-28.61-0.21-1.7-1.22-18.1c-0.11-1.74-0.7-4.12-0.84-6.15q-0.93-13.58-2.34-26.39-0.42-3.81-0.63-10.38c-0.06-2.08-0.56-4.28-0.93-6.38 0.07-3.77-1.86-5.39-5.04-7.3q-1.23-0.74-3.82-0.49-108.24 10.47-223.07 21.36a1.0161 1.2667 38.736 0 0-0.36 0.08q-3.56 1.39-4.67 5.38a3.0835 3.0144 51.476 0 0-0.1 0.98l10.07 129.12a2.1687 2.0976 22.92 0 0 0.54 1.27z" fill="#161615"/>
  <path d="m930.03 812.16q1.52-0.05 1.72 1.14c0.7 4.06-2.12 5.44-5.88 5.89q-8.09 0.95-39.23 6.56-14.19 2.56-69.97 11.23c-1.95 0.3-3.43 0.07-4.92 0.17a0.9025 0.8777 14.099 0 0-0.69 0.4q-0.53 0.83-1.62 0.48l-0.62-6.37q5.36 0.25 8.42-0.43 5.7-1.26 9.29-1.85 30.86-5.08 61.74-10.07 20.24-3.28 31-5.21 4.2-0.75 7.29-1.31z" fill="#dae4f2"/>
  <path d="m946.41 825.18 14.42 2.26q-3.79 4.51-1.56 8.71c2.8 5.27 10.77 7.02 16.45 8.18q38.49 7.92 65.35 11.78 13 1.88 23.62 2.14c14.44 0.35 27.72-4.37 41.25-9.08 24.28 4.63 46.6 9.77 68.05 18.59q12.24 5.04 21.61 13.33c17.03 15.07 8.19 35.33-5.15 48.62q-13.79 13.73-33.29 25.7c-28.05 17.23-57 30.61-87 42.09-52.91 20.25-108.21 36.45-164.22 49.9q-14.63 3.52-29.29 6.94-125.37 29.2-255.9 44.11-74.19 8.47-146.75 12.57-62.1 3.52-129.25 3.4199-50.1-0.07-97.24-3.2999c-53.23-3.63-104.4-9.69-153.79-22.85q-13.31-3.54-29.93-9.59c-15.29-5.66-31.99-13.22-44.25-24.16-6.99-6.24-10.57-12.27-12.5-21.06-1.71-7.7999 1.98-17.35 6.26-23.7 5.89-8.73 14.87-16.12 23.87-22.6q22.69-16.33 52.28-30.15 73.45-34.31 152.34-55.63l4.46 4.06c-0.43 11.92 17.8 12.08 25.55 12.71q17.96 1.45 43.93 1 58.44-1 116.02-5.9 39.23-3.35 89.74-8.23c9.22-0.89 20.04-2.96 27.28-3.66a2.8309 2.8569 63.851 0 1 2.23 0.75c9.47 8.82 17.8 10.26 31.35 9.03 21.77-1.98 43.83-5.1 64.66-7.62q19.29-2.35 45.53-5.85c27.57-3.69 39.93-5.08 65.93-8.8q18.88-2.69 37.24-4.45 15.3-1.46 24.5-12.95c3.41-4.26 4.18-9.39 10.28-10.78 6.85-1.57 16.51-2.49 25.8-4.44q22.9-4.8 58.46-12.03 2.97-0.6 13.77-3.42c4-1.04 16.76-6.71 12.73-12.89z" fill="#06305f"/>
  <path d="m960.83 827.44q54.1 7.36 108.43 15.23 18.47 2.68 36.68 6.5c-13.53 4.71-26.81 9.43-41.25 9.08q-10.62-0.26-23.62-2.14-26.86-3.86-65.35-11.78c-5.68-1.16-13.65-2.91-16.45-8.18q-2.23-4.2 1.56-8.71z" fill="#204678"/>
  <path d="m941.25 827.93c4.03 6.18-8.73 11.85-12.73 12.89q-10.8 2.82-13.77 3.42-35.56 7.23-58.46 12.03c-9.29 1.95-18.95 2.87-25.8 4.44-6.1 1.39-6.87 6.52-10.28 10.78q-9.2 11.49-24.5 12.95-18.36 1.76-37.24 4.45c-26 3.72-38.36 5.11-65.93 8.8q-26.24 3.5-45.53 5.85c-20.83 2.52-42.89 5.64-64.66 7.62-13.55 1.23-21.88-0.21-31.35-9.03a2.8309 2.8569 63.851 0 0-2.23-0.75c-7.24 0.7-18.06 2.77-27.28 3.66q-50.51 4.88-89.74 8.23-57.58 4.9-116.02 5.9-25.97 0.45-43.93-1c-7.75-0.63-25.98-0.79-25.55-12.71q2.47 0.84 6.25 0.57 104.35-7.48 133.25-10.1 42.75-3.88 85.48-7.92 42.66-4.02 84.94-8.38l8.65-0.81q0.52 1.93 0.19 5.18-0.19 1.82 0.8 4.64a2.5133 2.4825 14.579 0 0 0.53 0.89l5.26 5.66a3.9987 3.9894 62.994 0 0 3.68 1.2q1.46-0.19 8.84-1.54c5.15-0.94 10.24-0.59 14.98-1.19q23.14-2.96 49.79-5.33c7.46-0.66 13.84-1.79 20.66-2.01q2.92-0.1 11.56-1.22 5.21-0.67 11.6-1.04c1.32-0.08 2.77-0.52 4.19-0.65q21.39-2 22.42-2.08c10.66-0.85 19.12-2.15 31.5-3.33 1.82-0.17 4.18-0.74 6.02-0.86q12.33-0.8 18.5-1.84 6.36-1.08 12.6-1.46 0.58-0.04 12.65-1.18c6.06-0.57 7.84-4.03 10.79-8.95a1.6006 1.5522 59.052 0 0 0.22-0.94l-1.2-12.99q51.83-8.05 102.82-16.62c8.88-1.49 18.66-3.55 28.03-5.23z" fill="#022247"/>
  <path d="m255.24 888.11q2.9-2.36 5.41-1.43 4.31 0.95 7.11 0.64 12.88-1.43 24.47-2.11 15.47-0.9 24.5-1.84 19.15-1.98 28.28-2.34 13.71-0.55 17.4-1.07 5.25-0.73 10.06-0.85 1.97-0.04 10.03-1.11 4.56-0.61 10.49-0.73 8.91-0.18 10.52-0.46 11.66-2.03 22.12-2.41c9.27-0.33 17.11-1.28 26.42-2.1 5.75-0.51 11.42-0.33 18.77-0.28a4.5032 4.6724 35.577 0 0 1.73-0.32q4.86-1.9 8.39-2.24 11.76-1.14 23.35-2.56 4.7-0.57 23.38-2.28 11.33-1.03 25.84-3.23a2.2015 2.2008 83.566 0 1 2.52 2.01l0.26 3.25a1.2164 1.2234 89.395 0 1-1.29 1.31q-4.41-0.22-6.25 0.12-6.85 1.25-14.33 1.85c-12.64 1.02-18.72 1.86-36.9 3.68q-7.84 0.79-11.5 1.24c-7.9 0.97-13.77 1.12-20.69 2.04-9.97 1.32-22.94 1.39-29.09 2.3q-14.71 2.17-28.71 2.82-6.68 0.31-10.53 0.75c-5.02 0.57-9.02 1.18-14.01 1.51q-16.45 1.08-28.92 2.11c-3.55 0.29-8.14 1.02-11.83 1.28q-29.98 2.11-42.41 2.9c-7.25 0.45-13.54 1.85-20.49 1.9q-9.87 0.07-19.29 1.1-1.67 0.18-3.08-0.64-2.51-1.45-1.73-4.81z" fill="#dae4f2"/>
  <path d="m563.74 866.09 1.08 12.73-8.65 0.81 0.45-11.61a1.0159 1.0217 3.7211 0 1 1.11-0.98q4.07 0.4 6.01-0.95z" fill="#909090"/>
  <path d="m905.94 1047.4q-0.13 1.08 0.91 1.02 6.45-0.39 7.42-0.31c16.33 1.3 32.47 1.91 47.97 3.02q43.84 3.14 83.07 7.02c35.86 3.55 66.76 7.34 99.43 13.89q17.09 3.42 29.59 8.1499 4.65 1.7701 8.02 4.7301c19.44 17.1-54.04 27.71-59.58 28.61q-40.91 6.58-80.02 10.13-69.71 6.34-138.97 10.4-74.18 4.3499-167.28 6.5899-86.76 2.1-149.5 2.32-99.27 0.3499-171-1.33-76.86-1.81-90.75-2.19-32.98-0.9-104.24-4.47-69.07-3.47-142.73-12.26-21.91-2.61-39.54-6.67-8.25-1.9-15.45-4.07c-4.98-1.5-12.01-3.82-14.85-8.11-9.3-14.04 43.34-23.11 49.55-24.09q2.02-0.32 6.27 0.72a0.3825 0.3837 88.692 0 0 0.46-0.48q-0.17-0.61-0.93-1.32 16.62 6.05 29.93 9.59c49.39 13.16 100.56 19.22 153.79 22.85q47.14 3.23 97.24 3.2999 67.15 0.1001 129.25-3.4199 72.56-4.1 146.75-12.57 130.53-14.91 255.9-44.11 14.66-3.42 29.29-6.94z" fill="#dae4f2"/>
 </g>
 <metadata>
  <rdf:RDF>
   <cc:Work rdf:about="">
    <dc:title>M365Wizard</dc:title>
   </cc:Work>
  </rdf:RDF>
 </metadata>
 <path d="m586.4 774.25 189.8-16.913 7.517 80.808-191.68 20.672z" fill-opacity="0" stroke="#000" stroke-dasharray="4.9, 4.9" stroke-width="4.9"/>
 <text transform="matrix(.97544 -.076593 .070223 1.0197 0 0)" x="566.81714" y="861.32629" fill="#f2f2f2" fill-opacity="0" font-family="'Segoe UI'" font-size="59.318px" font-weight="bold" stroke="#000000" stroke-width="5.6723" xml:space="preserve"><tspan x="566.81714" y="861.32629" fill="#000000" fill-opacity="1" font-family="Arial" font-size="59.318px" font-weight="bold" stroke="none" stroke-width="5.6723">M365</tspan></text>
</svg>
